<?xml version="1.0" encoding="iso-8859-1"?>
<!-- Generator: Adobe Illustrator 17.0.0, SVG Export Plug-In . SVG Version: 6.00 Build 0)  -->
<!DOCTYPE svg PUBLIC "-//W3C//DTD SVG 1.1//EN" "http://www.w3.org/Graphics/SVG/1.1/DTD/svg11.dtd">
<svg version="1.1" id="Capa_1" xmlns="http://www.w3.org/2000/svg" xmlns:xlink="http://www.w3.org/1999/xlink" x="0px" y="0px"
	 width="64px" height="64px" viewBox="0 0 64 64" style="enable-background:new 0 0 64 64;" xml:space="preserve">
<g>
	<path d="M32.063,35.994c-0.876,0-2.168-0.096-3.353-0.551l-9.481-3.653h-4.644v5.689c0,1.749,1.301,3.734,2.905,4.431l11.48,4.997
		c1.604,0.697,4.208,0.7,5.814,0.007l11.605-5.011c1.605-0.693,2.907-2.675,2.907-4.424V31.79h-5.125l-8.402,3.542
		C34.759,35.759,33.441,35.994,32.063,35.994z"/>
	<path d="M6.419,24.364l22.862,8.809c1.633,0.628,4.263,0.587,5.875-0.093l21.833-9.203v13.578l-1.349,4.501h3.901l-1.396-4.548
		v-14.08h-0.039c0.943-0.65,0.723-1.461-0.673-1.96l-22.212-7.904c-1.648-0.588-4.311-0.563-5.949,0.052L6.429,22.11
		C4.791,22.726,4.787,23.736,6.419,24.364z"/>
</g>
</svg>
